<svg xmlns="http://www.w3.org/2000/svg" xmlns:xlink="http://www.w3.org/1999/xlink" width="192" zoomAndPan="magnify" viewBox="0 0 144 431.999984" height="576" preserveAspectRatio="xMidYMid meet" version="1.0"><defs><clipPath id="ee09de8029"><path d="M 46.714844 110.398438 L 69.515625 110.398438 L 69.515625 237.148438 L 46.714844 237.148438 Z M 46.714844 110.398438 " clip-rule="nonzero"/></clipPath><clipPath id="eb2a441d74"><path d="M 0.714844 0.398438 L 23.515625 0.398438 L 23.515625 127.148438 L 0.714844 127.148438 Z M 0.714844 0.398438 " clip-rule="nonzero"/></clipPath><clipPath id="25e3f08f2e"><rect x="0" width="24" y="0" height="128"/></clipPath><clipPath id="5d606b82b9"><path d="M 68.316406 110 L 127 110 L 127 320 L 68.316406 320 Z M 68.316406 110 " clip-rule="nonzero"/></clipPath><clipPath id="55f2fce6af"><path d="M 18.394531 109 L 67.894531 109 L 67.894531 320 L 18.394531 320 Z M 18.394531 109 " clip-rule="nonzero"/></clipPath><clipPath id="588f012873"><path d="M 0.679688 0.09375 L 19.230469 0.09375 L 19.230469 37.039062 L 0.679688 37.039062 Z M 0.679688 0.09375 " clip-rule="nonzero"/></clipPath><clipPath id="476b67d880"><path d="M 19.402344 0.191406 L 37.878906 0.191406 L 37.878906 37.039062 L 19.402344 37.039062 Z M 19.402344 0.191406 " clip-rule="nonzero"/></clipPath><clipPath id="aec28f7d83"><rect x="0" width="38" y="0" height="38"/></clipPath></defs><g clip-path="url(#ee09de8029)"><g transform="matrix(1, 0, 0, 1, 46, 110)"><g clip-path="url(#25e3f08f2e)"><g clip-path="url(#eb2a441d74)"><path fill="#006eff" d="M 0.714844 0.398438 L 23.515625 0.398438 L 23.515625 127.136719 L 0.714844 127.136719 Z M 0.714844 0.398438 " fill-opacity="1" fill-rule="nonzero"/></g></g></g></g><g clip-path="url(#5d606b82b9)"><path fill="#f658eb" d="M 64.636719 237.40625 L 64.636719 309.660156 C 64.621094 322.808594 44.929688 322.808594 44.976562 309.660156 L 44.976562 237.90625 L 18.429688 237.90625 L 46.726562 139.734375 L 42.34375 139.734375 L 25.941406 195.082031 C 22.007812 207.171875 5.441406 202.21875 9.285156 189.320312 L 27.445312 129.214844 C 29.441406 122.34375 38.109375 110.191406 53.113281 110.179688 L 81.789062 110.179688 C 96.707031 110.191406 105.414062 122.445312 107.710938 129.214844 L 125.867188 189.195312 C 129.578125 202.152344 113.144531 207.5 109.214844 194.957031 L 92.808594 139.734375 L 88.050781 139.734375 L 116.476562 237.90625 L 90.054688 237.90625 L 90.054688 309.785156 C 90.054688 322.808594 70.449219 322.742188 70.394531 309.785156 L 70.394531 237.40625 L 64.636719 237.40625 " fill-opacity="1" fill-rule="nonzero"/></g><g clip-path="url(#55f2fce6af)"><path fill="#006eff" d="M 45.574219 109.738281 C 30.507812 109.738281 18.390625 122.027344 18.390625 137.355469 L 18.390625 202.683594 C 18.390625 215.382812 36.976562 215.382812 36.976562 202.683594 L 36.976562 142.949219 L 41.378906 142.949219 L 41.378906 306.503906 C 41.378906 323.488281 66.128906 322.988281 66.128906 306.503906 L 66.128906 211.558594 L 70.390625 211.558594 L 70.390625 306.503906 C 70.390625 322.988281 95.28125 323.488281 95.28125 306.503906 L 95.28125 142.949219 L 99.578125 142.949219 L 99.578125 202.683594 C 99.578125 215.480469 118.066406 215.480469 118.035156 202.683594 L 118.035156 137.746094 C 118.035156 123.613281 107.058594 109.769531 90.515625 109.769531 L 45.574219 109.738281 " fill-opacity="1" fill-rule="nonzero"/></g><g transform="matrix(1, 0, 0, 1, 49, 64)"><g clip-path="url(#aec28f7d83)"><g clip-path="url(#588f012873)"><path fill="#006eff" d="M 18.671875 0.25 C 17.789062 0.28125 16.914062 0.375 16.042969 0.535156 C 15.171875 0.691406 14.320312 0.910156 13.480469 1.191406 C 12.644531 1.472656 11.828125 1.8125 11.039062 2.210938 C 10.25 2.609375 9.496094 3.0625 8.769531 3.570312 C 8.046875 4.078125 7.363281 4.636719 6.71875 5.242188 C 6.074219 5.847656 5.480469 6.496094 4.929688 7.191406 C 4.378906 7.882812 3.882812 8.609375 3.4375 9.375 C 2.992188 10.136719 2.605469 10.929688 2.273438 11.75 C 1.941406 12.570312 1.671875 13.410156 1.460938 14.269531 C 1.253906 15.128906 1.105469 15.996094 1.019531 16.875 C 0.9375 17.757812 0.917969 18.636719 0.957031 19.523438 C 1 20.40625 1.109375 21.28125 1.277344 22.148438 C 1.445312 23.015625 1.675781 23.867188 1.96875 24.703125 C 2.257812 25.535156 2.609375 26.34375 3.019531 27.128906 C 3.425781 27.914062 3.890625 28.664062 4.40625 29.382812 C 4.921875 30.097656 5.488281 30.777344 6.101562 31.410156 C 7.753906 33.125 9.667969 34.464844 11.84375 35.433594 C 14.015625 36.398438 16.292969 36.917969 18.671875 36.996094 L 19.3125 37.015625 L 19.3125 0.226562 Z M 18.671875 0.25 " fill-opacity="1" fill-rule="nonzero"/></g><g clip-path="url(#476b67d880)"><path fill="#f658eb" d="M 19.957031 36.996094 C 20.839844 36.964844 21.714844 36.871094 22.585938 36.710938 C 23.457031 36.554688 24.308594 36.332031 25.148438 36.050781 C 25.988281 35.769531 26.800781 35.429688 27.589844 35.03125 C 28.378906 34.632812 29.136719 34.179688 29.859375 33.671875 C 30.582031 33.164062 31.265625 32.609375 31.910156 32.003906 C 32.554688 31.398438 33.152344 30.746094 33.699219 30.054688 C 34.25 29.363281 34.75 28.632812 35.191406 27.871094 C 35.636719 27.105469 36.027344 26.316406 36.355469 25.496094 C 36.6875 24.675781 36.957031 23.835938 37.167969 22.976562 C 37.378906 22.117188 37.523438 21.25 37.609375 20.367188 C 37.691406 19.488281 37.714844 18.605469 37.671875 17.722656 C 37.628906 16.839844 37.523438 15.964844 37.351562 15.097656 C 37.183594 14.230469 36.953125 13.378906 36.664062 12.542969 C 36.371094 11.707031 36.019531 10.898438 35.613281 10.117188 C 35.203125 9.332031 34.742188 8.582031 34.222656 7.863281 C 33.707031 7.144531 33.140625 6.46875 32.527344 5.832031 C 30.875 4.117188 28.964844 2.777344 26.789062 1.8125 C 24.613281 0.847656 22.335938 0.324219 19.957031 0.25 L 19.316406 0.226562 L 19.316406 37.015625 Z M 19.957031 36.996094 " fill-opacity="1" fill-rule="nonzero"/></g></g></g></svg>